<?xml version="1.0" standalone="no"?>
<!DOCTYPE svg PUBLIC "-//W3C//DTD SVG 20010904//EN"
 "http://www.w3.org/TR/2001/REC-SVG-20010904/DTD/svg10.dtd">
<svg version="1.0" xmlns="http://www.w3.org/2000/svg"
 width="117.000000pt" height="117.000000pt" viewBox="0 0 117.000000 117.000000"
 preserveAspectRatio="xMidYMid meet">
<metadata>
Created by potrace 1.13, written by Peter Selinger 2001-2015
</metadata>
<g transform="translate(0.000000,117.000000) scale(0.100000,-0.100000)"
fill="#000000" stroke="none">
<path d="M117 770 c-15 -12 -27 -28 -27 -37 0 -13 3 -13 15 -3 12 10 21 10 41
1 34 -15 59 -14 74 4 7 8 16 15 21 15 5 0 10 -55 11 -122 1 -68 3 -102 5 -75
3 38 8 47 23 47 15 0 19 -9 22 -47 2 -27 8 -48 13 -48 6 0 11 21 13 48 3 39 6
47 23 47 10 0 19 7 19 15 0 8 -9 15 -20 15 -18 0 -20 7 -20 76 l0 75 -29 -17
c-25 -15 -27 -19 -15 -31 8 -8 14 -34 14 -59 0 -37 -3 -44 -20 -44 -18 0 -20
7 -20 69 l0 69 -32 5 c-18 3 -44 8 -58 12 -18 5 -33 0 -53 -15z"/>
<path d="M573 750 c-20 -22 -42 -40 -50 -40 -15 0 -17 -16 -3 -25 6 -3 10 -47
10 -97 0 -79 2 -89 15 -78 11 10 15 36 15 111 0 54 4 101 10 104 8 5 15 -52
13 -112 -1 -7 10 -13 23 -13 20 0 23 -5 26 -47 5 -86 23 -52 26 50 2 77 0 98
-10 95 -7 -3 -14 -19 -16 -36 -2 -24 -8 -32 -23 -32 -16 0 -19 7 -19 55 l0 54
29 -16 c27 -16 30 -16 54 0 22 14 31 15 54 5 39 -17 38 -16 19 -37 -14 -15
-16 -35 -14 -102 4 -116 22 -103 28 20 4 75 9 104 23 118 17 20 23 45 10 41
-5 -1 -18 3 -29 10 -18 10 -26 8 -47 -8 -31 -25 -33 -25 -59 0 -31 28 -45 25
-85 -20z"/>
<path d="M900 775 c-20 -11 -21 -14 -7 -15 10 0 39 -12 65 -27 34 -20 42 -29
29 -31 -14 -3 -16 -7 -7 -17 7 -9 10 -45 8 -94 -2 -45 -1 -81 3 -81 20 0 29
33 29 112 0 66 3 88 13 88 14 0 67 50 67 63 0 4 -8 2 -19 -5 -14 -9 -27 -8
-60 5 -50 21 -88 21 -121 2z"/>
</g>
</svg>
